Coordinates
version=1
nRows=29
nColumns=24
inDegrees=yes

Units are S.I. units (second, meters, Newtons, ...)
Angles are in degrees.

endheader
time	pelvis_tilt	pelvis_list	pelvis_rotation	pelvis_tx	pelvis_ty	pelvis_tz	hip_flexion_r	hip_adduction_r	hip_rotation_r	knee_angle_r	ankle_angle_r	subtalar_angle_r	mtp_angle_r	hip_flexion_l	hip_adduction_l	hip_rotation_l	knee_angle_l	ankle_angle_l	subtalar_angle_l	mtp_angle_l	lumbar_extension	lumbar_bending	lumbar_rotation
      0.72383333	      0.07448385	     -2.43821028	      2.09506762	     -0.45793047	      0.98581941	      0.30077260	     14.04591378	      7.41982413	      0.21020008	    -21.45994392	      8.22773758	     -9.74764392	      0.59560697	     19.27806751	     -2.51769122	     -0.92545402	    -71.53993882	     -5.52846330	     -5.58382668	      1.76176204	     -0.91514243	      5.40712767	      2.17730352
      0.72800000	      0.12730214	     -2.38851867	      2.12024135	     -0.45277412	      0.98682485	      0.30068022	     13.43931824	      7.35911064	      0.17229582	    -21.05453572	      8.32138729	     -9.60031398	      0.57988966	     19.87686168	     -2.40848758	     -0.82595651	    -71.42898487	     -4.94310787	     -6.19517517	      1.67639803	     -0.99517877	      5.36382564	      2.22711679
      0.73216667	      0.22004310	     -2.31620052	      2.14726734	     -0.44759703	      0.98790824	      0.30055633	     12.77421926	      7.26979609	      0.12288001	    -20.61920027	      8.40534609	     -9.37435729	      0.54890753	     20.39813026	     -2.26618229	     -0.72752945	    -71.21374261	     -4.42798471	     -6.82172808	      1.50511891	     -1.12055767	      5.31088653	      2.29739894
      0.73633333	      0.25190730	     -2.25718672	      2.14887734	     -0.44246003	      0.98884415	      0.30049561	     12.20016505	      7.20153419	      0.09664716	    -20.23345721	      8.50082316	     -9.25396803	      0.53459096	     20.97572371	     -2.15648765	     -0.66287670	    -70.95815366	     -3.79309885	     -7.34421146	      1.42112500	     -1.17920306	      5.24712859	      2.34817038
      0.74050000	      0.28094575	     -2.13421461	      2.14045048	     -0.43729819	      0.98979624	      0.30034807	     11.63495062	      7.04256476	      0.00281035	    -19.86240172	      8.58650371	     -8.79644635	      0.13766063	     21.51314584	     -1.95350504	     -0.61280507	    -70.59036175	     -3.26740246	     -7.94774419	     -0.91489471	     -1.22733764	      5.13206597	      2.39220458
      0.74466667	      0.38895012	     -2.08806425	      2.14801219	     -0.43212930	      0.99081910	      0.30028469	     10.94344819	      6.99667692	      0.00565650	    -19.40591649	      8.68963555	     -8.76993427	      0.12873605	     21.95603478	     -1.86192137	     -0.54362860	    -70.18024477	     -2.65222294	     -8.35455248	     -0.96590469	     -1.38059619	      5.10119556	      2.50717335
      0.74883333	      0.44744205	     -1.99552034	      2.12363958	     -0.42696936	      0.99177158	      0.30022324	     10.32122572	      6.89460420	      0.00981711	    -18.98177211	      8.75285082	     -8.63882840	      0.11954656	     22.41617942	     -1.71965391	     -0.51620795	    -69.67715200	     -2.10080763	     -8.81280490	     -1.02945258	     -1.47272660	      5.01011595	      2.60627757
      0.75300000	      0.48116746	     -1.89942872	      2.08838443	     -0.42182656	      0.99264188	      0.30016308	      9.73674573	      6.78478441	      0.00390532	    -18.57665196	      8.82708921	     -8.46312914	      0.11116246	     22.88201535	     -1.57486122	     -0.49912590	    -69.11134111	     -1.55717075	     -9.23598898	     -1.10305314	     -1.53893076	      4.91887625	      2.71105552
      0.75716667	      0.51683820	     -1.82148682	      2.03995258	     -0.41668064	      0.99346891	      0.30012329	      9.15152310	      6.69700596	      0.00619315	    -18.17082478	      8.89957852	     -8.30965804	      0.10484204	     23.32427360	     -1.46224264	     -0.49843400	    -68.48785451	     -0.99794935	     -9.59643537	     -1.16545827	     -1.59636158	      4.84831530	      2.80400062
      0.76133333	      0.57093472	     -1.72447323	      1.99553536	     -0.41155223	      0.99429508	      0.30006491	      8.54106042	      6.58740322	      0.01515193	    -17.75192623	      8.96857027	     -8.11308864	      0.09734131	     23.72102404	     -1.32230623	     -0.49231376	    -67.79009377	     -0.48881964	     -9.92523237	     -1.25242444	     -1.69990839	      4.74889109	      2.92924223
      0.76550000	      0.56986726	     -1.62769205	      1.92103029	     -0.40642869	      0.99499641	      0.30003649	      8.00880673	      6.47861698	      0.04341757	    -17.37127543	      9.04015359	     -7.97278284	      0.09384533	     24.15129907	     -1.19482441	     -0.51881248	    -67.03307759	      0.05460693	    -10.21688104	     -1.30454155	     -1.72578425	      4.66583118	      3.01574368
      0.76966667	      0.60336402	     -1.53567731	      1.85364168	     -0.40131791	      0.99569498	      0.30000674	      7.42983974	      6.37588844	      0.07088752	    -16.96577209	      9.10810796	     -7.80370259	      0.09087200	     24.52476643	     -1.07379235	     -0.53893032	    -66.21738294	      0.56025528	    -10.46910608	     -1.36221159	     -1.80943378	      4.57109056	      3.13007477
      0.77383333	      0.61767066	     -1.44024967	      1.77020376	     -0.39618520	      0.99633924	      0.29997332	      6.87712715	      6.26437647	      0.09146113	    -16.57187988	      9.16857293	     -7.62288680	      0.08817172	     24.88677813	     -0.95634327	     -0.58024362	    -65.32790959	      1.02332814	    -10.67311007	     -1.43242676	     -1.84317733	      4.48774559	      3.26582416
      0.77800000	      0.67434331	     -1.34932410	      1.70743216	     -0.39105480	      0.99699173	      0.29992846	      6.26593092	      6.15706259	      0.08615404	    -16.14665761	      9.24551294	     -7.38317720	      0.08463921	     25.18511760	     -0.84060583	     -0.60288432	    -64.38378655	      1.43522953	    -10.82526370	     -1.56682038	     -1.94469058	      4.39603550	      3.45281703
      0.78216667	      0.67524983	     -1.26144001	      1.60940296	     -0.38594161	      0.99750116	      0.29992878	      5.73516361	      6.05480748	      0.11716763	    -15.76083723	      9.30816220	     -7.21346959	      0.08362249	     25.52193841	     -0.74634595	     -0.66838459	    -63.39246672	      1.87216120	    -10.96689260	     -1.67414804	     -1.97221054	      4.30142443	      3.57897795
      0.78633333	      0.66645628	     -1.17906431	      1.52366825	     -0.38084145	      0.99794952	      0.29989259	      5.21430080	      5.95471879	      0.14254933	    -15.36868941	      9.37557586	     -7.01751074	      0.08484954	     25.84838944	     -0.64442475	     -0.70708677	    -62.34198452	      2.26019291	    -11.06667334	     -1.81853146	     -1.99887476	      4.23300769	      3.74315713
      0.79050000	      0.63239540	     -1.11003262	      1.41653854	     -0.37576131	      0.99829626	      0.29989227	      4.73212624	      5.87231264	      0.19981521	    -14.99621064	      9.43248261	     -6.87897677	      0.08717990	     26.18384135	     -0.57081179	     -0.76958355	    -61.25029329	      2.65809184	    -11.14915559	     -1.90387152	     -1.99244117	      4.17465630	      3.84169249
      0.79466667	      0.63746730	     -1.03975255	      1.32047334	     -0.37065437	      0.99866969	      0.29987429	      4.19333950	      5.78731327	      0.24676295	    -14.59485078	      9.48556828	     -6.72934256	      0.09090349	     26.44752361	     -0.49345707	     -0.82413620	    -60.09186462	      3.00347525	    -11.19499182	     -1.99136534	     -2.03050695	      4.11535828	      3.97551864
      0.79883333	      0.64905275	     -0.97113142	      1.24683084	     -0.36553325	      0.99900115	      0.29982066	      3.64154301	      5.69705040	      0.23817253	    -14.17799738	      9.55297530	     -6.51829289	      0.10080292	     26.68397050	     -0.40903832	     -0.86130761	    -58.88136205	      3.28222333	    -11.22296352	     -2.16926790	     -2.07595935	      4.05337519	      4.18197276
      0.80300000	      0.61126731	     -0.91498115	      1.14670456	     -0.36041499	      0.99919713	      0.29980702	      3.15710194	      5.62269421	      0.26578383	    -13.78918223	      9.60908950	     -6.36320557	      0.11202959	     26.95438707	     -0.35587685	     -0.93432512	    -57.63219226	      3.56307899	    -11.22808551	     -2.32262137	     -2.05481270	      3.99709083	      4.31773484
      0.80716667	      0.58432893	     -0.86212350	      1.04317330	     -0.35532673	      0.99936420	      0.29978943	      2.66634411	      5.55289357	      0.32301920	    -13.40831962	      9.65858275	     -6.22614886	      0.12109983	     27.18672161	     -0.30007066	     -0.99138357	    -56.32532816	      3.82110093	    -11.21110668	     -2.41696250	     -2.05525637	      3.95386939	      4.41931834
      0.81133333	      0.55597320	     -0.80533677	      0.95434777	     -0.35019986	      0.99950718	      0.29974409	      2.16598268	      5.47478458	      0.34588175	    -13.00593225	      9.70990738	     -6.08354176	      0.13144463	     27.39258105	     -0.23568654	     -1.04501019	    -54.95997314	      4.02116033	    -11.18319349	     -2.51582602	     -2.04734844	      3.90612402	      4.55414384
      0.81550000	      0.55079504	     -0.76737282	      0.88971269	     -0.34505179	      0.99960076	      0.29967133	      1.63091443	      5.41345847	      0.31435804	    -12.58247714	      9.77440657	     -5.90030949	      0.15115986	     27.56099510	     -0.18757198	     -1.08819932	    -53.56715331	      4.18926668	    -11.14949386	     -2.68130529	     -2.06845095	      3.87920230	      4.73408525
      0.81966667	      0.50853347	     -0.72914788	      0.80738713	     -0.33992040	      0.99960847	      0.29961275	      1.15148580	      5.35316876	      0.31740907	    -12.18976989	      9.83149567	     -5.74776742	      0.17088909	     27.74136788	     -0.14332998	     -1.14216907	    -52.12099766	      4.33053700	    -11.08539545	     -2.83434560	     -2.04177708	      3.85292391	      4.86321971
      0.82383333	      0.46186241	     -0.69575474	      0.72290054	     -0.33479266	      0.99957181	      0.29955601	      0.68068813	      5.29907927	      0.34001507	    -11.80668378	      9.88568129	     -5.62017998	      0.18463404	     27.89974259	     -0.10230761	     -1.18860758	    -50.62527124	      4.44007359	    -10.99104963	     -2.92958730	     -2.00891481	      3.82690233	      4.95525028
      0.82800000	      0.43771543	     -0.65695869	      0.65975011	     -0.32961461	      0.99951941	      0.29946576	      0.17361318	      5.23527040	      0.29853557	    -11.40086549	      9.94946131	     -5.46783587	      0.20335782	     28.00756028	     -0.05167476	     -1.23885137	    -49.08605298	      4.50590793	    -10.91473493	     -3.05102198	     -1.99388462	      3.79731968	      5.08818453
      0.83216667	      0.39645015	     -0.62737807	      0.59637645	     -0.32444874	      0.99940036	      0.29936350	     -0.31077785	      5.18133213	      0.27308834	    -11.00270672	     10.01090757	     -5.32388083	      0.22047380	     28.11337303	     -0.00957487	     -1.28524261	    -47.51147772	      4.54320041	    -10.80044532	     -3.15699315	     -1.97492522	      3.78283935	      5.19397282
      0.83633333	      0.38607651	     -0.61258971	      0.56075868	     -0.31925110	      0.99927055	      0.29922236	     -0.83633827	      5.14309831	      0.19463524	    -10.59058211	     10.08520018	     -5.14302676	      0.24772149	     28.16345058	      0.03186700	     -1.30162315	    -45.90520419	      4.55628679	    -10.70589178	     -3.31642635	     -1.98043632	      3.78707356	      5.32426067
      0.84050000	      0.36750579	     -0.58520494	      0.51346925	     -0.31404720	      0.99909966	      0.29909257	     -1.34282273	      5.09150275	      0.12767553	    -10.20177733	     10.15746367	     -4.97767137	      0.27498527	     28.19159930	      0.07864472	     -1.34149937	    -44.25391517	      4.52962313	    -10.57096634	     -3.46595578	     -1.97527149	      3.77172744	      5.41769798
